<?xml version="1.0" encoding="UTF-8" standalone="no"?> <!-- Created with Vectornator for iOS (http://vectornator.io/) --><!DOCTYPE svg PUBLIC "-//W3C//DTD SVG 1.1//EN" "http://www.w3.org/Graphics/SVG/1.1/DTD/svg11.dtd">
<svg height="100%" style="fill-rule:nonzero;clip-rule:evenodd;stroke-linecap:round;stroke-linejoin:round;" xmlns:xlink="http://www.w3.org/1999/xlink" xmlns="http://www.w3.org/2000/svg" xml:space="preserve" width="100%" xmlns:vectornator="http://vectornator.io" version="1.1" viewBox="0 0 1024 1024">
<metadata>
<vectornator:setting key="DimensionsVisible" value="1"/>
<vectornator:setting key="PencilOnly" value="0"/>
<vectornator:setting key="SnapToPoints" value="0"/>
<vectornator:setting key="OutlineMode" value="0"/>
<vectornator:setting key="CMYKEnabledKey" value="0"/>
<vectornator:setting key="RulersVisible" value="1"/>
<vectornator:setting key="SnapToEdges" value="0"/>
<vectornator:setting key="GuidesVisible" value="1"/>
<vectornator:setting key="DisplayWhiteBackground" value="0"/>
<vectornator:setting key="doHistoryDisabled" value="0"/>
<vectornator:setting key="SnapToGuides" value="1"/>
<vectornator:setting key="TimeLapseWatermarkDisabled" value="0"/>
<vectornator:setting key="Units" value="Points"/>
<vectornator:setting key="DynamicGuides" value="0"/>
<vectornator:setting key="IsolateActiveLayer" value="0"/>
<vectornator:setting key="SnapToGrid" value="0"/>
</metadata>
<defs/>
<g id="Layer 1" vectornator:layerName="Layer 1">
<path d="M236.651+115.676C236.651+97.4771+251.407+82.7216+269.606+82.7216L754.406+82.7216C772.605+82.7216+787.36+97.4771+787.36+115.676C787.36+133.876+772.605+148.631+754.406+148.631L269.606+148.631C251.407+148.631+236.651+133.876+236.651+115.676ZM218.372+247.712L805.628+247.712C823.827+247.712+838.583+232.956+838.583+214.757C838.583+196.558+823.827+181.802+805.628+181.802L218.372+181.802C200.173+181.802+185.417+196.558+185.417+214.757C185.417+232.956+200.173+247.712+218.372+247.712ZM159.578+346.793L535.342+346.793C553.541+346.793+568.297+332.037+568.297+313.838C568.297+295.639+553.541+280.883+535.342+280.883L159.578+280.883C141.379+280.883+126.623+295.639+126.623+313.838C126.623+332.037+141.379+346.793+159.578+346.793ZM95.7096+445.874L928.29+445.874C946.49+445.874+961.245+431.118+961.245+412.919L961.245+412.919C961.245+394.72+946.49+379.964+928.29+379.964L95.7096+379.964C77.5104+379.964+62.7549+394.72+62.7549+412.919L62.7549+412.919C62.7663+431.118+77.5104+445.874+95.7096+445.874ZM979.045+479.045L44.9548+479.045C26.7555+479.045+12+493.801+12+512L12+512C12+530.199+26.7555+544.955+44.9548+544.955L979.045+544.955C997.244+544.955+1012+530.199+1012+512L1012+512C1012+493.801+997.244+479.045+979.045+479.045ZM770.541+875.369L253.471+875.369C235.271+875.369+220.516+890.124+220.516+908.324C220.516+926.523+235.271+941.278+253.471+941.278L770.541+941.278C788.74+941.278+803.496+926.523+803.496+908.324C803.496+890.124+788.74+875.369+770.541+875.369ZM824.774+776.288L199.226+776.288C181.027+776.288+166.272+791.044+166.272+809.243C166.272+827.442+181.027+842.198+199.226+842.198L824.774+842.198C842.973+842.198+857.728+827.442+857.728+809.243C857.728+791.044+842.973+776.288+824.774+776.288ZM879.52+677.207L144.492+677.207C126.293+677.207+111.537+691.963+111.537+710.162C111.537+728.361+126.293+743.117+144.492+743.117L879.52+743.117C897.719+743.117+912.474+728.361+912.474+710.162C912.474+691.963+897.719+677.207+879.52+677.207ZM292.526+611.081L292.526+611.081C292.526+592.882+277.77+578.126+259.571+578.126L83.5996+578.126C65.4004+578.126+50.6449+592.882+50.6449+611.081L50.6449+611.081C50.6449+629.28+65.4004+644.036+83.5996+644.036L259.571+644.036C277.77+644.036+292.526+629.28+292.526+611.081ZM655.199+313.838C655.199+332.037+669.955+346.793+688.154+346.793L852.232+346.793C870.431+346.793+885.187+332.037+885.187+313.838C885.187+295.639+870.431+280.883+852.232+280.883L688.154+280.883C669.955+280.883+655.199+295.639+655.199+313.838ZM928.29+578.126L380.42+578.126C362.221+578.126+347.466+592.882+347.466+611.081L347.466+611.081C347.466+629.28+362.221+644.036+380.42+644.036L928.29+644.036C946.49+644.036+961.245+629.28+961.245+611.081L961.245+611.081C961.245+592.882+946.49+578.126+928.29+578.126Z" fill-rule="evenodd" fill="#000000" opacity="1"/>
</g>
</svg>
