<?xml version="1.0" encoding="utf-8"?>
<!-- Generator: Adobe Illustrator 25.0.1, SVG Export Plug-In . SVG Version: 6.00 Build 0)  -->
<svg version="1.1" id="Layer_1" xmlns="http://www.w3.org/2000/svg" xmlns:xlink="http://www.w3.org/1999/xlink" x="0px" y="0px"
	 viewBox="0 0 1280 1024" style="enable-background:new 0 0 1280 1024;" xml:space="preserve">
<style type="text/css">
	.st0{clip-path:url(#SVGID_2_);fill:url(#SVGID_3_);}
</style>
<g>
	<defs>
		<path id="SVGID_1_" d="M419.6,173.98c0-15.96,12.94-28.9,28.9-28.9h425.15c15.96,0,28.9,12.94,28.9,28.9
			c0,15.96-12.94,28.9-28.9,28.9H448.5C432.54,202.88,419.6,189.94,419.6,173.98z M403.57,289.77h515c15.96,0,28.9-12.94,28.9-28.9
			c0-15.96-12.94-28.9-28.9-28.9h-515c-15.96,0-28.9,12.94-28.9,28.9C374.67,276.83,387.61,289.77,403.57,289.77z M352.01,376.66
			h329.53c15.96,0,28.9-12.94,28.9-28.9c0-15.96-12.94-28.9-28.9-28.9H352.01c-15.96,0-28.9,12.94-28.9,28.9
			C323.11,363.72,336.05,376.66,352.01,376.66z M296,463.55h730.14c15.96,0,28.9-12.94,28.9-28.9v0c0-15.96-12.94-28.9-28.9-28.9
			H296c-15.96,0-28.9,12.94-28.9,28.9v0C267.11,450.61,280.04,463.55,296,463.55z M1070.65,492.64H251.49
			c-15.96,0-28.9,12.94-28.9,28.9v0c0,15.96,12.94,28.9,28.9,28.9h819.16c15.96,0,28.9-12.94,28.9-28.9v0
			C1099.55,505.58,1086.61,492.64,1070.65,492.64z M887.8,840.2H434.35c-15.96,0-28.9,12.94-28.9,28.9c0,15.96,12.94,28.9,28.9,28.9
			H887.8c15.96,0,28.9-12.94,28.9-28.9C916.7,853.14,903.76,840.2,887.8,840.2z M935.36,753.31H386.78
			c-15.96,0-28.9,12.94-28.9,28.9c0,15.96,12.94,28.9,28.9,28.9h548.58c15.96,0,28.9-12.94,28.9-28.9
			C964.26,766.25,951.32,753.31,935.36,753.31z M983.37,666.42H338.78c-15.96,0-28.9,12.94-28.9,28.9c0,15.96,12.94,28.9,28.9,28.9
			h644.59c15.96,0,28.9-12.94,28.9-28.9C1012.27,679.36,999.33,666.42,983.37,666.42z M468.6,608.43L468.6,608.43
			c0-15.96-12.94-28.9-28.9-28.9H285.38c-15.96,0-28.9,12.94-28.9,28.9v0c0,15.96,12.94,28.9,28.9,28.9H439.7
			C455.66,637.33,468.6,624.39,468.6,608.43z M786.65,347.76c0,15.96,12.94,28.9,28.9,28.9h143.89c15.96,0,28.9-12.94,28.9-28.9
			c0-15.96-12.94-28.9-28.9-28.9H815.55C799.59,318.86,786.65,331.8,786.65,347.76z M1026.14,579.53H545.68
			c-15.96,0-28.9,12.94-28.9,28.9v0c0,15.96,12.94,28.9,28.9,28.9h480.46c15.96,0,28.9-12.94,28.9-28.9v0
			C1055.04,592.47,1042.1,579.53,1026.14,579.53z"/>
	</defs>
	<clipPath id="SVGID_2_">
		<use xlink:href="#SVGID_1_"  style="overflow:visible;"/>
	</clipPath>
	<linearGradient id="SVGID_3_" gradientUnits="userSpaceOnUse" x1="661.0732" y1="929.1472" x2="661.0732" y2="139.5958">
		<stop  offset="0" style="stop-color:#2274A5"/>
		<stop  offset="0.4385" style="stop-color:#11BD8F"/>
		<stop  offset="0.4725" style="stop-color:#2BBB81"/>
		<stop  offset="0.5505" style="stop-color:#62B763"/>
		<stop  offset="0.6292" style="stop-color:#91B34A"/>
		<stop  offset="0.707" style="stop-color:#B8B035"/>
		<stop  offset="0.7836" style="stop-color:#D6AE25"/>
		<stop  offset="0.8587" style="stop-color:#EBAC19"/>
		<stop  offset="0.9316" style="stop-color:#F8AB12"/>
		<stop  offset="1" style="stop-color:#FCAB10"/>
	</linearGradient>
	<polygon class="st0" points="890.4,139.6 431.75,139.6 202.42,534.37 431.75,929.15 890.4,929.15 1119.73,534.37 	"/>
</g>
<g>
</g>
<g>
</g>
<g>
</g>
<g>
</g>
<g>
</g>
<g>
</g>
<g>
</g>
<g>
</g>
<g>
</g>
<g>
</g>
<g>
</g>
<g>
</g>
<g>
</g>
<g>
</g>
<g>
</g>
</svg>
